<svg width="160" height="43" fill="none" xmlns="http://www.w3.org/2000/svg"><path d="M97.657 34.07c-2.438 0-4.653-.588-6.646-1.763-1.993-1.2-3.563-2.83-4.712-4.892-1.125-2.062-1.688-4.328-1.688-6.797 0-2.47.563-4.724 1.688-6.762 1.149-2.062 2.72-3.692 4.712-4.891 1.993-1.199 4.208-1.798 6.646-1.798 2.438 0 4.642.6 6.611 1.798 1.992 1.199 3.563 2.83 4.712 4.891 1.148 2.038 1.723 4.292 1.723 6.762 0 2.47-.575 4.735-1.723 6.797a12.718 12.718 0 01-4.677 4.892c-1.993 1.175-4.208 1.762-6.646 1.762zm0-3.85c1.664 0 3.188-.407 4.571-1.222 1.383-.815 2.473-1.942 3.27-3.38.797-1.463 1.196-3.13 1.196-5s-.399-3.525-1.196-4.963c-.797-1.463-1.887-2.602-3.27-3.417s-2.907-1.223-4.571-1.223c-1.664 0-3.188.408-4.571 1.223-1.383.815-2.485 1.954-3.306 3.417-.797 1.438-1.195 3.093-1.195 4.963s.398 3.537 1.195 5c.82 1.438 1.922 2.565 3.306 3.38 1.383.815 2.907 1.223 4.57 1.223zm16.741-13.18c0-1.044.827-1.889 1.847-1.889 1.019 0 1.846.845 1.846 1.888v.522h.176c.515-.863 1.277-1.57 2.285-2.122a6.615 6.615 0 013.27-.863c2.181 0 3.833.659 4.959 1.978 1.148 1.295 1.723 3.069 1.723 5.323v9.639c0 1.092-.866 1.978-1.934 1.978-1.069 0-1.934-.886-1.934-1.979v-9.099c0-1.439-.352-2.494-1.055-3.165-.68-.671-1.63-1.007-2.849-1.007-.867 0-1.641.252-2.32.755-.68.48-1.208 1.127-1.583 1.943a6.206 6.206 0 00-.562 2.625v7.948c0 1.093-.866 1.979-1.935 1.979-1.068 0-1.934-.886-1.934-1.979V17.04zm29.868 17.03c-1.727 0-3.281-.41-4.663-1.227-1.358-.818-2.429-1.939-3.212-3.364-.76-1.448-1.14-3.071-1.14-4.87 0-1.705.369-3.281 1.105-4.73.76-1.471 1.808-2.639 3.143-3.503 1.336-.865 2.856-1.297 4.56-1.297 1.773 0 3.304.397 4.593 1.192a7.613 7.613 0 012.971 3.258c.69 1.378 1.036 2.931 1.036 4.66 0 .707-.621 1.226-1.318 1.226H139.05c.139 1.659.714 2.943 1.727 3.854 1.037.888 2.234 1.332 3.592 1.332 1.083 0 2.015-.246 2.798-.736a5.624 5.624 0 001.114-.93c.536-.581 1.369-.874 2.079-.533 1.054.505 1.475 1.835.696 2.715a9.17 9.17 0 01-1.989 1.691c-1.336.84-2.936 1.261-4.801 1.261zm4.524-11.598a4.366 4.366 0 00-.587-1.857c-.345-.63-.875-1.156-1.589-1.576-.69-.42-1.542-.631-2.555-.631-1.221 0-2.257.374-3.109 1.121-.829.724-1.404 1.705-1.727 2.943h9.567z" fill="#2F2F2F"/><path fill-rule="evenodd" clip-rule="evenodd" d="M3.583 3.583V0h152.683c1.54 0 2.79 1.11 2.79 2.478v38.044c0 1.369-1.25 2.478-2.79 2.478H2.79C1.25 43 0 41.89 0 40.522V2a2 2 0 012-2h1.583v39.417h151.889V3.583H3.583z" fill="#2F2F2F"/><path d="M52.599 33.757c-1.383 0-2.615-.256-3.697-.769-1.08-.537-1.923-1.282-2.527-2.234-.603-.976-.905-2.075-.905-3.295 0-1.929.742-3.454 2.225-4.577 1.51-1.123 3.408-1.684 5.696-1.684 1.132 0 2.15.11 3.055.329.906.195 1.622.415 2.15.66v-.953c0-1.147-.44-2.075-1.32-2.783-.88-.732-2.012-1.098-3.395-1.098-.98 0-1.91.207-2.79.622-.264.128-.511.27-.743.428-.846.575-2.016.785-2.836.175-.78-.58-.955-1.676-.228-2.319a8.91 8.91 0 012.147-1.396c1.357-.635 2.866-.952 4.526-.952 2.791 0 4.941.671 6.45 2.014 1.509 1.318 2.263 3.185 2.263 5.602v9.667c0 1.092-.912 1.977-2.037 1.977h-.886c-.636 0-1.15-.5-1.15-1.117v-.997a.121.121 0 00-.123-.12c-.042 0-.08.02-.103.053-.55.783-1.318 1.436-2.302 1.961-1.006.537-2.163.806-3.47.806zm.717-3.332c1.005 0 1.91-.232 2.715-.696a5.05 5.05 0 001.886-1.867 4.954 4.954 0 00.68-2.527c-.58-.317-1.258-.573-2.038-.769a9.446 9.446 0 00-2.376-.293c-1.559 0-2.703.305-3.432.916-.73.585-1.094 1.355-1.094 2.306 0 .855.34 1.563 1.018 2.124.68.537 1.56.806 2.64.806zm-38.918 3.332c-2.104 0-3.994-.613-5.673-1.84a8.928 8.928 0 01-2.767-3.319c-.497-1.01.086-2.166 1.13-2.59 1.022-.413 2.153.18 2.705 1.132.33.569.73 1.076 1.202 1.523.969.872 2.127 1.309 3.474 1.309 1.253 0 2.316-.319 3.19-.956.875-.66 1.313-1.556 1.313-2.688 0-1.038-.39-1.887-1.17-2.547-.757-.684-2.092-1.368-4.007-2.052l-1.595-.566c-1.702-.59-3.132-1.439-4.29-2.547-1.158-1.109-1.737-2.57-1.737-4.387a6.27 6.27 0 011.028-3.467c.685-1.061 1.63-1.898 2.836-2.512 1.23-.636 2.612-.955 4.148-.955 2.222 0 3.995.543 5.318 1.628.753.603 1.364 1.252 1.834 1.946.589.872.079 1.98-.89 2.39-1.002.426-2.157-.135-2.912-.918a5.638 5.638 0 00-.442-.411c-.733-.614-1.679-.92-2.837-.92-1.158 0-2.139.295-2.942.884-.78.59-1.17 1.345-1.17 2.264 0 .873.354 1.592 1.063 2.158.71.566 1.82 1.109 3.333 1.628l1.595.53c2.175.755 3.853 1.745 5.035 2.972 1.205 1.203 1.808 2.818 1.808 4.846 0 1.651-.426 3.043-1.277 4.175a7.726 7.726 0 01-3.261 2.476c-1.3.543-2.647.814-4.042.814zm19.13 0c-1.277 0-2.414-.256-3.412-.769a5.863 5.863 0 01-2.333-2.234c-.557-.976-.836-2.075-.836-3.295 0-1.929.685-3.454 2.055-4.577 1.392-1.123 3.145-1.684 5.257-1.684 1.044 0 1.985.11 2.82.329.836.195 1.497.415 1.985.66v-.953c0-1.147-.406-2.075-1.219-2.783-.812-.732-1.857-1.098-3.133-1.098-.906 0-1.765.207-2.577.622-.242.128-.47.27-.685.428-.78.575-1.861.785-2.618.175-.72-.58-.88-1.676-.21-2.319a8.19 8.19 0 011.981-1.396c1.254-.635 2.646-.952 4.178-.952 2.577 0 4.561.671 5.954 2.014 1.393 1.318 2.09 3.185 2.09 5.602v9.667c0 1.092-.843 1.977-1.881 1.977h-.818c-.587 0-1.062-.5-1.062-1.117v-.997c0-.066-.05-.12-.114-.12a.113.113 0 00-.094.053c-.509.783-1.217 1.436-2.125 1.961-.928.537-1.996.806-3.203.806zm.661-3.332c.929 0 1.764-.232 2.507-.696a4.871 4.871 0 001.741-1.867 5.275 5.275 0 00.627-2.527 7.526 7.526 0 00-1.88-.769 8.085 8.085 0 00-2.194-.293c-1.439 0-2.495.305-3.168.916-.673.585-1.01 1.355-1.01 2.306 0 .855.313 1.563.94 2.124.627.537 1.44.806 2.437.806zm39.005 3.332c-2.245 0-4.082-.464-5.51-1.392a8.313 8.313 0 01-2.078-1.935c-.654-.875-.136-2.03.893-2.462 1.059-.444 2.253.063 3.071.845.232.22.483.417.754.587.842.512 1.799.769 2.87.769 1.046 0 1.927-.171 2.641-.513.715-.366 1.072-.903 1.072-1.611 0-.684-.306-1.22-.919-1.611-.612-.391-1.556-.733-2.832-1.026l-2.335-.549c-1.556-.366-2.844-1.013-3.865-1.94-1.02-.928-1.53-2.1-1.53-3.516 0-1.098.33-2.063.994-2.892.69-.83 1.608-1.465 2.756-1.904 1.148-.464 2.398-.696 3.75-.696 1.812 0 3.407.354 4.784 1.062a6.606 6.606 0 011.873 1.359c.763.802.268 1.997-.77 2.431-1.002.42-2.136-.069-3.03-.671-.73-.493-1.67-.74-2.818-.74-.944 0-1.735.184-2.373.55-.638.366-.957.842-.957 1.428 0 .562.242 1.025.727 1.391.485.342 1.2.635 2.143.88l2.87.695c1.914.464 3.356 1.172 4.326 2.124.995.927 1.492 2.075 1.492 3.442 0 1.171-.357 2.209-1.072 3.112-.688.879-1.645 1.562-2.87 2.05-1.225.489-2.577.733-4.057.733z" fill="#2F2F2F"/></svg>